<?xml version="1.0" encoding="utf-8"?>
<!-- Generator: Adobe Illustrator 16.0.0, SVG Export Plug-In . SVG Version: 6.00 Build 0)  -->
<!DOCTYPE svg PUBLIC "-//W3C//DTD SVG 1.1//EN" "http://www.w3.org/Graphics/SVG/1.1/DTD/svg11.dtd">
<svg version="1.1" id="Layer_1" xmlns="http://www.w3.org/2000/svg" xmlns:xlink="http://www.w3.org/1999/xlink" x="0px" y="0px"
	 width="1800px" height="512px" viewBox="-154.5 0 1800 512" enable-background="new -154.5 0 1800 512" xml:space="preserve">
<path fill="#FFFFFF" d="M417.266,29.125h-451.32c-16.757,0-30.341,13.584-30.341,30.342v307.199
	c0,16.758,13.584,30.341,30.341,30.341h53.71v85.868l102.449-85.868h295.16c16.757,0,30.341-13.582,30.341-30.341V59.467
	C447.605,42.709,434.021,29.125,417.266,29.125z M118.584,220.582l43.528,44.209c4.266,4.333,4.211,11.369-0.122,15.635
	l-40.706,40.08c-4.333,4.269-11.368,4.212-15.635-0.122l-99.43-100.99c-4.265-4.333-4.212-11.368,0.122-15.635l101.062-99.503
	c4.334-4.266,11.369-4.212,15.636,0.121L163.43,145.4c4.265,4.333,4.211,11.369-0.122,15.635l-44.602,43.912
	C114.373,209.212,114.317,216.248,118.584,220.582z M376.996,219.394l-99.431,100.99c-4.268,4.334-11.302,4.389-15.635,0.122
	l-40.707-40.08c-4.333-4.266-4.387-11.302-0.121-15.635l43.527-44.209c4.269-4.334,4.213-11.37-0.121-15.635l-44.604-43.912
	c-4.332-4.266-4.388-11.302-0.12-15.635l40.394-41.023c4.267-4.333,11.302-4.387,15.635-0.121l101.062,99.503
	C381.209,208.026,381.263,215.061,376.996,219.394z"/>
<text transform="matrix(1 0 0 1 523.1143 275.5)" fill="#FFFFFF" font-family="'MyriadPro-Regular'" font-size="210">plzteach.me</text>
</svg>
