<svg version="1.2" baseProfile="tiny" xmlns="http://www.w3.org/2000/svg" width="24" height="24" viewBox="0 0 24 24">
<path d="M12,21c-4.962,0-9-4.037-9-9s4.038-9,9-9s9,4.037,9,9S16.962,21,12,21z M12,5c-3.86,0-7,3.141-7,7c0,3.859,3.14,7,7,7
	c3.859,0,7-3.141,7-7C19,8.141,15.859,5,12,5z M17.485,12.134c0,1.194-0.348,2.27-1.046,3.224c-0.698,0.955-1.599,1.616-2.704,1.982
	c-0.128,0.023-0.223,0.008-0.282-0.05s-0.09-0.129-0.09-0.214v-1.508c0-0.462-0.123-0.8-0.37-1.014
	c0.271-0.029,0.515-0.071,0.731-0.128c0.217-0.059,0.44-0.151,0.672-0.279c0.23-0.129,0.424-0.287,0.579-0.476
	c0.154-0.188,0.281-0.438,0.378-0.75c0.098-0.312,0.146-0.67,0.146-1.075c0-0.576-0.187-1.066-0.562-1.471
	c0.176-0.433,0.157-0.919-0.058-1.457c-0.134-0.042-0.326-0.017-0.579,0.079c-0.252,0.095-0.472,0.2-0.657,0.314l-0.271,0.172
	C12.929,9.36,12.471,9.298,12,9.298c-0.472,0-0.928,0.062-1.372,0.186c-0.076-0.053-0.177-0.117-0.304-0.193
	C10.199,9.215,10,9.124,9.729,9.017C9.457,8.91,9.252,8.877,9.115,8.92c-0.209,0.538-0.227,1.024-0.05,1.457
	C8.688,10.782,8.5,11.272,8.5,11.848c0,0.405,0.049,0.762,0.146,1.072c0.098,0.309,0.223,0.559,0.375,0.75
	c0.152,0.189,0.344,0.35,0.575,0.479c0.231,0.128,0.455,0.221,0.671,0.279c0.216,0.057,0.46,0.099,0.732,0.128
	c-0.191,0.171-0.307,0.416-0.35,0.735c-0.1,0.048-0.207,0.083-0.321,0.107c-0.114,0.022-0.25,0.035-0.407,0.035
	s-0.312-0.051-0.468-0.153c-0.155-0.103-0.287-0.251-0.396-0.446c-0.091-0.153-0.206-0.276-0.347-0.371
	c-0.141-0.096-0.259-0.152-0.354-0.172L8.214,14.27c-0.1,0-0.169,0.011-0.207,0.032c-0.038,0.021-0.05,0.049-0.036,0.082
	s0.036,0.066,0.064,0.101c0.028,0.032,0.06,0.062,0.093,0.085l0.05,0.036c0.105,0.048,0.208,0.138,0.311,0.271
	c0.103,0.133,0.177,0.255,0.225,0.364l0.072,0.163c0.062,0.182,0.167,0.328,0.314,0.439c0.147,0.112,0.307,0.184,0.479,0.215
	c0.171,0.031,0.337,0.047,0.497,0.05s0.292-0.006,0.396-0.024l0.165-0.029c0,0.181,0.001,0.394,0.003,0.637
	c0.002,0.242,0.003,0.371,0.003,0.386c0,0.085-0.031,0.156-0.093,0.214s-0.157,0.073-0.285,0.05
	c-1.105-0.366-2.006-1.027-2.704-1.982c-0.698-0.954-1.046-2.03-1.046-3.224c0-0.996,0.245-1.913,0.735-2.754
	c0.491-0.84,1.156-1.506,1.996-1.996c0.841-0.49,1.759-0.735,2.754-0.735c0.996,0,1.913,0.245,2.754,0.735
	c0.84,0.49,1.506,1.156,1.996,1.996C17.241,10.221,17.485,11.139,17.485,12.134z"/>
</svg>
