<svg version="1.2" baseProfile="tiny" xmlns="http://www.w3.org/2000/svg" width="24" height="24" viewBox="0 0 24 24"><path d="M19.254 15.682v.773c0 .666-.225 1.229-.672 1.695a2.176 2.176 0 0 1-1.625.695h-.668L13.241 22v-3.153H7.043c-.633 0-1.173-.23-1.623-.694a2.357 2.357 0 0 1-.675-1.696v-.772h14.508v-.003zm0-3.819v2.989H4.746v-2.989h14.508zm0-3.843v2.989H4.746V8.02h14.508zm0-1.642v.786H4.746v-.786c0-.656.226-1.216.675-1.682A2.175 2.175 0 0 1 7.043 4h9.914c.633 0 1.174.232 1.625.697a2.34 2.34 0 0 1 .672 1.681z"/></svg>