<svg version="1.2" baseProfile="tiny" xmlns="http://www.w3.org/2000/svg" width="24" height="24" viewBox="0 0 24 24">
<path d="M21,12.22c0,1.959-0.571,3.724-1.717,5.291c-1.145,1.566-2.622,2.65-4.436,3.252c-0.211,0.039-0.365,0.013-0.463-0.082
	c-0.098-0.094-0.147-0.211-0.147-0.351v-2.474c0-0.758-0.202-1.312-0.607-1.663c0.444-0.048,0.845-0.118,1.2-0.211
	c0.354-0.095,0.723-0.247,1.103-0.458c0.378-0.211,0.694-0.471,0.949-0.779c0.253-0.31,0.461-0.72,0.62-1.23
	c0.16-0.512,0.239-1.1,0.239-1.764c0-0.945-0.307-1.75-0.924-2.414c0.289-0.711,0.258-1.508-0.094-2.391
	c-0.22-0.07-0.535-0.027-0.95,0.129C15.359,7.231,15,7.403,14.695,7.591L14.25,7.873C13.523,7.668,12.773,7.567,12,7.567
	c-0.774,0-1.523,0.101-2.25,0.305C9.625,7.786,9.459,7.68,9.251,7.556C9.045,7.431,8.719,7.281,8.274,7.105
	C7.828,6.929,7.492,6.876,7.266,6.946c-0.344,0.882-0.372,1.68-0.083,2.391c-0.618,0.664-0.926,1.469-0.926,2.414
	c0,0.664,0.08,1.25,0.24,1.758c0.16,0.507,0.366,0.917,0.616,1.23c0.249,0.312,0.564,0.574,0.943,0.785s0.747,0.363,1.102,0.458
	c0.355,0.093,0.755,0.163,1.201,0.211c-0.313,0.28-0.504,0.683-0.574,1.206c-0.165,0.078-0.34,0.137-0.527,0.176
	c-0.188,0.038-0.41,0.058-0.668,0.058c-0.258,0-0.513-0.082-0.768-0.251c-0.254-0.168-0.47-0.411-0.649-0.732
	c-0.149-0.251-0.338-0.453-0.569-0.608c-0.231-0.157-0.424-0.251-0.581-0.282l-0.234-0.035c-0.164,0-0.278,0.018-0.339,0.053
	c-0.062,0.035-0.083,0.08-0.059,0.135c0.023,0.055,0.059,0.109,0.104,0.164c0.047,0.054,0.098,0.102,0.152,0.141l0.083,0.059
	c0.172,0.078,0.342,0.227,0.51,0.445c0.168,0.218,0.291,0.418,0.369,0.598l0.118,0.269C6.829,17.883,7,18.123,7.242,18.307
	s0.503,0.301,0.785,0.353c0.281,0.051,0.553,0.077,0.815,0.082c0.261,0.004,0.478-0.01,0.649-0.041l0.27-0.048
	c0,0.297,0.002,0.646,0.006,1.044c0.003,0.398,0.005,0.609,0.005,0.634c0,0.14-0.05,0.257-0.152,0.351
	c-0.102,0.095-0.257,0.121-0.468,0.082c-1.813-0.602-3.292-1.686-4.436-3.252C3.572,15.944,3,14.18,3,12.22
	c0-1.633,0.402-3.139,1.207-4.518c0.806-1.379,1.896-2.471,3.275-3.275C8.861,3.623,10.368,3.22,12,3.22
	c1.634,0,3.139,0.402,4.518,1.207c1.379,0.805,2.471,1.896,3.275,3.275C20.599,9.081,21,10.587,21,12.22z"/>
</svg>
