<svg version="1.2" baseProfile="tiny" xmlns="http://www.w3.org/2000/svg" width="24" height="24" viewBox="0 0 24 24"><path d="M18.891 8.847c0 .676-.239 1.254-.719 1.732a2.36 2.36 0 0 1-1.732.718c-.676 0-1.254-.239-1.732-.718s-.719-1.057-.719-1.732c0-.677.24-1.254.719-1.733a2.361 2.361 0 0 1 1.732-.718c.677 0 1.254.239 1.732.718.479.479.719 1.056.719 1.733zm-7.735 7.452c0-.696-.245-1.289-.733-1.777a2.421 2.421 0 0 0-1.778-.733c-.181 0-.361.021-.542.06l1.045.422c.516.208.882.564 1.1 1.07a1.89 1.89 0 0 1 .015 1.521 1.92 1.92 0 0 1-1.075 1.095 1.921 1.921 0 0 1-1.527.011 260.356 260.356 0 0 1-1.236-.492c.214.401.519.725.914.969.395.245.83.367 1.306.367.696 0 1.289-.245 1.778-.733a2.43 2.43 0 0 0 .733-1.78zm8.337-7.443c0-.844-.3-1.565-.899-2.165a2.949 2.949 0 0 0-2.164-.898c-.851 0-1.575.3-2.175.898a2.953 2.953 0 0 0-.899 2.165c0 .851.301 1.573.899 2.17.6.596 1.324.894 2.175.894.844 0 1.565-.298 2.164-.894a2.947 2.947 0 0 0 .899-2.17zm1.507 0c0 1.266-.447 2.344-1.341 3.233-.894.891-1.971 1.336-3.229 1.336l-4.39 3.205c-.08.863-.445 1.594-1.095 2.189s-1.417.894-2.3.894c-.81 0-1.527-.254-2.149-.763a3.336 3.336 0 0 1-1.186-1.929L3 16.099v-4.31l3.907 1.577a3.287 3.287 0 0 1 2.09-.461l2.853-4.088c.014-1.253.467-2.32 1.362-3.204.894-.885 1.967-1.326 3.219-1.326 1.259 0 2.336.447 3.229 1.341S21 7.598 21 8.856z"/></svg>