<svg xmlns="http://www.w3.org/2000/svg" width="512" height="512" viewBox="0 0 512 512"><path fill="#FFF" d="M481.66 29.125H30.341C13.584 29.125 0 42.709 0 59.467v307.199c0 16.758 13.584 30.341 30.341 30.341h53.71v85.868L186.5 397.007h295.16c16.757 0 30.34-13.582 30.34-30.341V59.467c0-16.758-13.583-30.342-30.34-30.342zM182.978 220.582l43.529 44.209c4.265 4.333 4.211 11.369-.122 15.635l-40.707 40.08c-4.333 4.266-11.368 4.213-15.634-.122l-99.431-100.99c-4.265-4.333-4.212-11.368.122-15.635l101.062-99.503c4.334-4.266 11.369-4.212 15.635.121l40.392 41.023c4.265 4.333 4.211 11.369-.122 15.635L183.1 204.947c-4.333 4.265-4.388 11.301-.122 15.635zm258.412-1.188l-99.431 100.99c-4.267 4.334-11.302 4.388-15.635.122l-40.707-40.08c-4.333-4.266-4.387-11.302-.121-15.635l43.528-44.209c4.268-4.334 4.212-11.37-.121-15.635l-44.604-43.912c-4.332-4.266-4.388-11.302-.121-15.635l40.394-41.023c4.266-4.333 11.301-4.387 15.634-.121l101.062 99.503c4.333 4.267 4.387 11.302.122 15.635z"/></svg>