<?xml version="1.0" encoding="utf-8"?>
<!-- Generator: Adobe Illustrator 16.0.0, SVG Export Plug-In . SVG Version: 6.00 Build 0)  -->
<!DOCTYPE svg PUBLIC "-//W3C//DTD SVG 1.1//EN" "http://www.w3.org/Graphics/SVG/1.1/DTD/svg11.dtd">
<svg version="1.1" id="Layer_1" xmlns="http://www.w3.org/2000/svg" xmlns:xlink="http://www.w3.org/1999/xlink" x="0px" y="0px"
	 width="345px" height="230px" viewBox="83.5 160 345 230" enable-background="new 83.5 160 345 230" xml:space="preserve">
<rect x="83.5" y="159.341" fill="#6290C3" width="345" height="230.659"/>
<path fill="#FFFFFF" d="M330.371,199.209H187.13c-5.318,0-9.63,4.486-9.63,10.019v101.439c0,5.533,4.312,10.019,9.63,10.019h17.046
	v28.354l32.515-28.354h93.68c5.318,0,9.629-4.485,9.629-10.019V209.229C340,203.695,335.689,199.209,330.371,199.209z
	 M235.574,262.43l13.816,14.598c1.354,1.432,1.336,3.755-0.039,5.163l-12.919,13.234c-1.375,1.409-3.608,1.392-4.962-0.04
	l-31.557-33.348c-1.354-1.431-1.337-3.754,0.039-5.162l32.075-32.857c1.375-1.408,3.608-1.391,4.962,0.041l12.819,13.545
	c1.354,1.431,1.337,3.755-0.038,5.163l-14.156,14.5C234.238,258.676,234.221,260.999,235.574,262.43z M317.589,262.037
	l-31.558,33.348c-1.354,1.432-3.586,1.449-4.962,0.04L268.15,282.19c-1.375-1.408-1.393-3.731-0.039-5.163l13.815-14.598
	c1.354-1.431,1.337-3.754-0.039-5.163l-14.156-14.5c-1.375-1.408-1.392-3.732-0.039-5.163l12.821-13.545
	c1.354-1.432,3.587-1.449,4.962-0.041l32.075,32.857C318.926,258.283,318.943,260.606,317.589,262.037z"/>
</svg>
