<?xml version="1.0" encoding="utf-8"?>
<!-- Generator: Adobe Illustrator 16.0.0, SVG Export Plug-In . SVG Version: 6.00 Build 0)  -->
<!DOCTYPE svg PUBLIC "-//W3C//DTD SVG 1.1//EN" "http://www.w3.org/Graphics/SVG/1.1/DTD/svg11.dtd">
<svg version="1.1" xmlns="http://www.w3.org/2000/svg" xmlns:xlink="http://www.w3.org/1999/xlink" x="0px" y="0px" width="512px"
	 height="512px" viewBox="0 0 512 512" enable-background="new 0 0 512 512" xml:space="preserve">
<g id="Layer_3">
	<g>
		<path fill="#90C1E6" d="M471.867,47.133H38.134c-16.104,0-29.159,13.055-29.159,29.159v295.23
			c0,16.104,13.055,29.159,29.159,29.159h51.618l4.876,80.186l52.084-80.186h325.155c16.104,0,29.158-13.054,29.158-29.159V76.292
			C501.025,60.188,487.971,47.133,471.867,47.133z"/>
		<g>
			<g>
				<path fill="#FFFFFF" d="M225.769,161.01c3.858,3.919,3.809,10.283-0.11,14.142l-40.344,39.72
					c-3.919,3.858-3.969,10.222-0.11,14.142l39.373,39.989c3.858,3.919,3.809,10.283-0.11,14.142l-36.821,36.253
					c-3.919,3.859-10.283,3.81-14.142-0.11l-89.938-91.349c-3.858-3.919-3.81-10.283,0.11-14.142l91.414-90.004
					c3.92-3.859,10.283-3.81,14.142,0.11L225.769,161.01z"/>
			</g>
			<g>
				<path fill="#FFFFFF" d="M276.742,161.01c-3.858,3.919-3.809,10.283,0.11,14.142l40.345,39.72
					c3.919,3.858,3.969,10.222,0.11,14.142l-39.374,39.989c-3.858,3.919-3.809,10.283,0.11,14.142l36.821,36.253
					c3.919,3.859,10.283,3.81,14.142-0.11l89.938-91.349c3.858-3.919,3.809-10.283-0.11-14.142l-91.414-90.004
					c-3.919-3.859-10.283-3.81-14.142,0.11L276.742,161.01z"/>
			</g>
		</g>
	</g>
</g>
<g id="Layer_2">
</g>
<g id="Layer_1">
</g>
</svg>
