<?xml version="1.0" encoding="utf-8"?>
<!-- Generator: Adobe Illustrator 16.0.0, SVG Export Plug-In . SVG Version: 6.00 Build 0)  -->
<!DOCTYPE svg PUBLIC "-//W3C//DTD SVG 1.1//EN" "http://www.w3.org/Graphics/SVG/1.1/DTD/svg11.dtd">
<svg version="1.1" id="Layer_1" xmlns="http://www.w3.org/2000/svg" xmlns:xlink="http://www.w3.org/1999/xlink" x="0px" y="0px"
	 width="512px" height="512px" viewBox="0 0 512 512" enable-background="new 0 0 512 512" xml:space="preserve">
<path fill="#FFFFFF" d="M481.66,29.125H30.341C13.584,29.125,0,42.709,0,59.467v307.199c0,16.758,13.584,30.341,30.341,30.341h53.71
	v85.868L186.5,397.007h295.16c16.757,0,30.34-13.582,30.34-30.341V59.467C512,42.709,498.417,29.125,481.66,29.125z
	 M182.978,220.582l43.529,44.209c4.265,4.333,4.211,11.369-0.122,15.635l-40.707,40.08c-4.333,4.266-11.368,4.213-15.634-0.122
	l-99.431-100.99c-4.265-4.333-4.212-11.368,0.122-15.635l101.062-99.503c4.334-4.266,11.369-4.212,15.635,0.121l40.392,41.023
	c4.265,4.333,4.211,11.369-0.122,15.635L183.1,204.947C178.767,209.212,178.712,216.248,182.978,220.582z M441.39,219.394
	l-99.431,100.99c-4.267,4.334-11.302,4.388-15.635,0.122l-40.707-40.08c-4.333-4.266-4.387-11.302-0.121-15.635l43.528-44.209
	c4.268-4.334,4.212-11.37-0.121-15.635l-44.604-43.912c-4.332-4.266-4.388-11.302-0.121-15.635l40.394-41.023
	c4.266-4.333,11.301-4.387,15.634-0.121l101.062,99.503C445.601,208.026,445.655,215.061,441.39,219.394z"/>
</svg>
