<svg xmlns="http://www.w3.org/2000/svg" width="512" height="512" viewBox="0 0 512 512"><path fill="#90C1E6" d="M471.867 47.133H38.134c-16.104 0-29.159 13.055-29.159 29.159v295.23c0 16.104 13.055 29.159 29.159 29.159h51.618l4.876 80.186 52.084-80.186h325.155c16.104 0 29.158-13.054 29.158-29.159V76.292c0-16.104-13.054-29.159-29.158-29.159z"/><path fill="#FFF" d="M225.769 161.01c3.858 3.919 3.809 10.283-.11 14.142l-40.344 39.72c-3.919 3.858-3.969 10.222-.11 14.142l39.373 39.989c3.858 3.919 3.809 10.283-.11 14.142l-36.821 36.253c-3.919 3.859-10.283 3.81-14.142-.11l-89.938-91.349c-3.858-3.919-3.81-10.283.11-14.142l91.414-90.004c3.92-3.859 10.283-3.81 14.142.11l36.536 37.107zM276.742 161.01c-3.858 3.919-3.809 10.283.11 14.142l40.345 39.72c3.919 3.858 3.969 10.222.11 14.142l-39.374 39.989c-3.858 3.919-3.809 10.283.11 14.142l36.821 36.253c3.919 3.859 10.283 3.81 14.142-.11l89.938-91.349c3.858-3.919 3.809-10.283-.11-14.142l-91.414-90.004c-3.919-3.859-10.283-3.81-14.142.11l-36.536 37.107z"/></svg>