<?xml version="1.0" encoding="utf-8"?>
<!-- Generator: Adobe Illustrator 16.0.0, SVG Export Plug-In . SVG Version: 6.00 Build 0)  -->
<!DOCTYPE svg PUBLIC "-//W3C//DTD SVG 1.1//EN" "http://www.w3.org/Graphics/SVG/1.1/DTD/svg11.dtd">
<svg version="1.1" id="Layer_1" xmlns="http://www.w3.org/2000/svg" xmlns:xlink="http://www.w3.org/1999/xlink" x="0px" y="0px"
	 width="512px" height="512px" viewBox="0 -192 512 512" enable-background="new 0 -192 512 512" xml:space="preserve">
<g>
	<path fill="#5764C6" d="M496.98-133.698c-4.012-4-8.582-7.205-13.492-9.641c-0.59-0.32-69.512-34.756-70.113-35.061
		c-7.383-4.035-15.664-6.195-24.258-6.195H280.109c-13.555,0-26.338,5.324-35.998,14.988c-4.619,4.619-8.215,9.967-10.74,15.76
		c-0.195-0.092-48.531-24.244-49.127-24.549c-7.385-4.035-15.668-6.199-24.264-6.199H50.969c-13.561,0-26.35,5.328-35.984,14.977
		C5.324-159.956,0-147.171,0-133.618v359.283c0,14.371,5.629,27.555,15.787,37.055c3.941,3.695,8.305,6.648,12.973,8.898
		c0.592,0.32,69.512,34.766,70.111,35.059c7.289,3.887,15.4,5.918,24.01,5.918h109.008c13.547,0,26.33-5.32,36.002-14.992
		c4.613-4.617,8.211-9.969,10.727-15.75c0.191,0.086,0.379,0.168,0.559,0.258c0.59,0.32,47.941,23.977,48.543,24.266
		c7.391,4.055,15.68,6.219,24.301,6.219h109.012c13.547,0,26.316-5.312,36-14.992c9.652-9.664,14.969-22.434,14.969-35.977V-97.667
		C512-111.183,506.691-123.95,496.98-133.698z"/>
	<g>
		<g>
			<path fill="#FFFFFF" d="M389.117-148.64c4.074,0,7.594,1.488,10.57,4.453c2.961,2.967,4.449,6.488,4.449,10.568v359.283
				c0,4.086-1.488,7.602-4.449,10.57c-2.969,2.969-6.496,4.449-10.57,4.449H280.109c-4.086,0-7.605-1.48-10.57-4.449
				c-2.969-2.969-4.445-6.484-4.445-10.57V105.532h-90.098v120.133c0,4.086-1.484,7.602-4.447,10.57
				c-2.973,2.969-6.492,4.449-10.568,4.449H50.969c-4.084,0-7.605-1.395-10.564-4.176c-2.977-2.773-4.453-6.398-4.453-10.844
				v-359.283c0-4.08,1.48-7.598,4.453-10.568c2.959-2.965,6.48-4.453,10.564-4.453h109.008c4.08,0,7.596,1.488,10.568,4.453
				c2.963,2.967,4.447,6.488,4.447,10.568v116.791h90.102v-116.791c0-4.08,1.477-7.598,4.445-10.568
				c2.961-2.965,6.48-4.453,10.57-4.453H389.117z"/>
		</g>
	</g>
</g>
</svg>
