<?xml version="1.0" encoding="utf-8"?>
<!-- Generator: Adobe Illustrator 16.0.0, SVG Export Plug-In . SVG Version: 6.00 Build 0)  -->
<!DOCTYPE svg PUBLIC "-//W3C//DTD SVG 1.1//EN" "http://www.w3.org/Graphics/SVG/1.1/DTD/svg11.dtd">
<svg version="1.1" id="Layer_1" xmlns="http://www.w3.org/2000/svg" xmlns:xlink="http://www.w3.org/1999/xlink" x="0px" y="0px"
	 width="512px" height="512px" viewBox="0 0 512 512" enable-background="new 0 0 512 512" xml:space="preserve">
<g>
	<path fill="#6290C3" d="M481.66,29.125H30.341C13.584,29.125,0,42.709,0,59.467v307.199c0,16.758,13.584,30.341,30.341,30.341
		h53.71v85.868L186.5,397.007h295.16c16.757,0,30.34-13.582,30.34-30.341V59.467C512,42.709,498.417,29.125,481.66,29.125z"/>
	<path fill="#FFFFFF" d="M227.824,145.4c4.265,4.333,4.211,11.369-0.122,15.635L183.1,204.947
		c-4.333,4.265-4.388,11.301-0.122,15.635l43.529,44.209c4.265,4.333,4.211,11.369-0.122,15.635l-40.707,40.08
		c-4.333,4.266-11.368,4.213-15.634-0.122l-99.431-100.99c-4.265-4.333-4.212-11.368,0.122-15.635l101.062-99.503
		c4.334-4.266,11.369-4.212,15.635,0.121L227.824,145.4z M284.178,145.4c-4.267,4.333-4.211,11.369,0.121,15.635l44.604,43.912
		c4.333,4.265,4.389,11.301,0.121,15.635l-43.528,44.209c-4.266,4.333-4.212,11.369,0.121,15.635l40.707,40.08
		c4.333,4.266,11.368,4.212,15.635-0.122l99.431-100.99c4.266-4.333,4.211-11.368-0.122-15.635l-101.062-99.503
		c-4.333-4.266-11.368-4.212-15.634,0.121L284.178,145.4L284.178,145.4z"/>
</g>
</svg>
